<?xml version="1.0" standalone="no"?><!DOCTYPE svg PUBLIC "-//W3C//DTD SVG 1.1//EN" "http://www.w3.org/Graphics/SVG/1.1/DTD/svg11.dtd"><svg t="1760502432966" class="icon" viewBox="0 0 1024 1024" version="1.1" xmlns="http://www.w3.org/2000/svg" p-id="18048" xmlns:xlink="http://www.w3.org/1999/xlink" width="200" height="200"><path d="M939.8341 336.883104h-1.919857C893.757527 137.537931 708.619296-3.76356 496.347084 0.076154 284.266858 4.043859 104.632218 152.000855 68.474907 352.689929A81.273955 81.273955 0 0 0 0 432.93996v160.628053c1.023924 45.18064 38.397144 81.145965 83.641779 80.250032 24.318191-0.319976 47.292483-11.199167 62.715336-29.885777a378.467851 378.467851 0 0 0 205.808693 209.392426 47.99643 47.99643 0 0 1 4.15969-6.399524 7.359453 7.359453 0 0 1 4.607658-3.327753c1.407895 0 2.751795 0.511962 4.0317 1.279905A356.581479 356.581479 0 0 1 247.021628 635.484896a97.848723 97.848723 0 0 1 75.706369-106.616071c71.994645-13.119024 143.413334-27.645944 215.407979-40.189011a123.190838 123.190838 0 0 0 95.992861-72.698593c7.615434-17.790677 12.287086-36.733268 14.014957-55.995835a8.447372 8.447372 0 0 1 6.59151-6.911486 8.959334 8.959334 0 0 1 9.151319 3.327753l1.919858-1.21591c28.477882 40.189011 83.641779 128.118471 92.601112 220.783579 9.215315 106.232099 4.159691 179.186673-79.99405 253.677133a6.527515 6.527515 0 0 0-1.855862 4.607657c0.12799 2.239833 1.279905 4.223686 3.199762 5.375601h5.311605l3.583733-2.047848A375.012108 375.012108 0 0 0 867.775459 625.309653c12.799048 18.046658 31.933625 30.397739 53.564016 34.557429-35.325373 156.596353-179.826625 254.829047-358.693322 269.675943-13.439-31.99762-47.612459-50.108273-81.657926-43.196787a69.11486 69.11486 0 0 0 3.711723 136.821824 72.762588 72.762588 0 0 0 79.290103-47.228488c207.024603-16.254791 373.092251-135.285938 407.841667-321.256106 31.101687-12.159096 51.836145-41.916882 52.156121-75.258403V418.733017a79.99405 79.99405 0 0 0-24.958144-57.787702 86.713551 86.713551 0 0 0-60.283516-23.870225l1.151914-0.191986z m-76.346322 46.332554a386.659242 386.659242 0 0 0-716.682697-1.919857 111.351718 111.351718 0 0 0-8.959333-8.831343c28.349891-173.107125 183.410359-300.77763 365.924784-301.417582 182.514425-0.639952 338.534821 126.070623 368.100623 298.985763-3.199762 4.223686-6.079548 8.639357-8.383377 13.183019z" fill="#3976f7" p-id="18049" data-spm-anchor-id="a313x.search_index.0.i2.438c3a81jAj6Ik" class="selected"></path></svg>