<?xml version="1.0" standalone="no"?><!DOCTYPE svg PUBLIC "-//W3C//DTD SVG 1.1//EN" "http://www.w3.org/Graphics/SVG/1.1/DTD/svg11.dtd"><svg t="1760502921857" class="icon" viewBox="0 0 1024 1024" version="1.1" xmlns="http://www.w3.org/2000/svg" p-id="22743" xmlns:xlink="http://www.w3.org/1999/xlink" width="200" height="200"><path d="M773.5 595.5c-32.9 0-59.9-28.4-59.9-63 0-34.7 26.9-63 59.9-63H961v-52.4c0-33.8-26.2-61.4-58.3-61.4H250.1c-32.1 0-58.3 27.6-58.3 61.4v424c0 33.8 26.2 61.4 58.3 61.4h652.6c32.1 0 58.3-27.6 58.3-61.4V595.5H773.5z" p-id="22744" fill="#3976f7"></path><path d="M774.7 532.5m-41 0a41 41 0 1 0 82 0 41 41 0 1 0-82 0Z" p-id="22745" fill="#3976f7"></path><path d="M155.4 380.8c0-33.8 27.6-61.4 61.4-61.4h632.5l-53-154.7c-10.9-31.9-46-49.1-78-38.2L106.5 336.3c-31.9 10.9-49.1 46-38.2 78l87.1 254.1V380.8z" p-id="22746" fill="#3976f7"></path></svg>